# xmcd
#
# Track frame offsets:
#   150
#   14310
#   27887
#   40232
#   55267
#   67855
#   79510
#   89387
#   102510
#   116035
#   128687
#   140965
#   153872
#   168097
#   181500
#   194147
#   206050
#   218175
#   230460
#   244330
#
# Disc length: 3443 seconds
#
# Revision: 7
# Processed by: cddbd v1.5.1PL0 Copyright (c) Steve Scherf et al.
# Submitted via: Media_Universe 3.0
#
DISCID=130d7114
DTITLE=Various Artist - Living The Blues - Blues Greats
DYEAR=1995
DGENRE=Blues
TTITLE0=Howlin' Wolf - Smoke Stack Lightning
TTITLE1=John Lee Hooker - Crawling King Snake Blues
TTITLE2=Otis Rush - Double Trouble
TTITLE3=Elmore James - It Hurts Me Too
TTITLE4=Jimmy Reed - Bright Lights, Big City
TTITLE5=Junior Wells - Little by Little
TTITLE6=Willie Dixon - 29 Ways
TTITLE7=Amos Milburn and His Aladdin Chickenshackers - One Scotch, One Burbon, One Beer
TTITLE8=T-Bone Walker - T-Bone Shuffle
TTITLE9=B. B. King - Every Day I Have the Blues
TTITLE10=Little Walter and His Night Cats - Juke
TTITLE11=Muddy Waters - I Just Want to Make Love to You
TTITLE12=Sonny Boy Williamson - Help Me
TTITLE13=Buster Brown - Fannie Mae
TTITLE14=Jimmy Rogers - Walking by Myself
TTITLE15=Little Junior Parker - Driving Wheel
TTITLE16=Little Milton - We're Gonna Make It
TTITLE17=Bobby Bland - Cry Cry Cry
TTITLE18=Chuck Berry - Wee Wee Hours
TTITLE19=Charles Brown - Black Night
EXTD=
EXTT0=
EXTT1=
EXTT2=
EXTT3=
EXTT4=
EXTT5=
EXTT6=
EXTT7=
EXTT8=
EXTT9=
EXTT10=
EXTT11=
EXTT12=
EXTT13=
EXTT14=
EXTT15=
EXTT16=
EXTT17=
EXTT18=
EXTT19=
PLAYORDER=
